<svg width="78" height="15" viewBox="0 0 78 15" fill="none" xmlns="http://www.w3.org/2000/svg">
<path d="M-0.000234321 14.78V0.080029H3.43977C3.78643 0.080029 4.12643 0.113362 4.45977 0.180029C4.80643 0.233362 5.1331 0.340029 5.43977 0.500028C5.75977 0.660029 6.03977 0.866695 6.27977 1.12003C6.5331 1.37336 6.7331 1.65336 6.87977 1.96003C7.03977 2.2667 7.1531 2.59336 7.21977 2.94003C7.28643 3.2867 7.31977 3.63336 7.31977 3.98003C7.31977 4.30003 7.28643 4.62003 7.21977 4.94003C7.16643 5.2467 7.06643 5.54003 6.91977 5.82003C6.7731 6.10003 6.58643 6.35336 6.35977 6.58003C6.1331 6.79336 5.87977 6.97336 5.59977 7.12003C5.94643 7.25336 6.26643 7.44003 6.55977 7.68003C6.8531 7.9067 7.09977 8.18003 7.29977 8.50003C7.49977 8.8067 7.63977 9.1467 7.71977 9.52003C7.79977 9.88003 7.83977 10.2467 7.83977 10.62C7.83977 10.9934 7.79977 11.3734 7.71977 11.76C7.6531 12.1334 7.52643 12.4934 7.33977 12.84C7.1531 13.1734 6.9131 13.4734 6.61977 13.74C6.33977 13.9934 6.01977 14.2 5.65977 14.36C5.3131 14.52 4.94643 14.6334 4.55977 14.7C4.18643 14.7534 3.8131 14.78 3.43977 14.78H-0.000234321ZM1.79977 6.36003H3.43977C3.7331 6.36003 4.01977 6.3067 4.29977 6.20003C4.5931 6.09336 4.8331 5.9267 5.01977 5.70003C5.20643 5.46003 5.3331 5.19336 5.39977 4.90003C5.47977 4.6067 5.51977 4.31336 5.51977 4.02003C5.51977 3.7267 5.47977 3.43336 5.39977 3.14003C5.3331 2.8467 5.20643 2.5867 5.01977 2.36003C4.8331 2.12003 4.5931 1.9467 4.29977 1.84003C4.01977 1.73336 3.7331 1.68003 3.43977 1.68003H1.79977V6.36003ZM1.79977 13.18H3.43977C3.66643 13.18 3.8931 13.16 4.11977 13.12C4.35977 13.08 4.57977 13.0067 4.77977 12.9C4.9931 12.7934 5.17977 12.66 5.33977 12.5C5.5131 12.3267 5.6531 12.14 5.75977 11.94C5.86643 11.7267 5.93977 11.5067 5.97977 11.28C6.01977 11.04 6.03977 10.8067 6.03977 10.58C6.03977 10.34 6.01977 10.1067 5.97977 9.88003C5.93977 9.65336 5.86643 9.43336 5.75977 9.22003C5.6531 9.0067 5.5131 8.82003 5.33977 8.66003C5.17977 8.4867 4.9931 8.3467 4.77977 8.24003C4.57977 8.13336 4.35977 8.06003 4.11977 8.02003C3.8931 7.98003 3.66643 7.96003 3.43977 7.96003H1.79977V13.18ZM10.2598 14.78V13.18H12.9998V5.98003H10.5398V4.38003H14.7998V13.18H17.2598V14.78H10.2598ZM13.8598 2.76003C13.6731 2.76003 13.4864 2.73336 13.2998 2.68003C13.1264 2.6267 12.9731 2.53336 12.8398 2.40003C12.7064 2.2667 12.6131 2.11336 12.5598 1.94003C12.5064 1.75336 12.4798 1.5667 12.4798 1.38003C12.4798 1.19336 12.5064 1.01336 12.5598 0.840029C12.6131 0.653362 12.7064 0.493362 12.8398 0.360029C12.9731 0.226696 13.1264 0.133362 13.2998 0.080029C13.4864 0.0266956 13.6731 2.88486e-05 13.8598 2.88486e-05C14.0464 2.88486e-05 14.2264 0.0266956 14.3998 0.080029C14.5864 0.133362 14.7464 0.226696 14.8798 0.360029C15.0131 0.493362 15.1064 0.653362 15.1598 0.840029C15.2131 1.01336 15.2398 1.19336 15.2398 1.38003C15.2398 1.5667 15.2131 1.75336 15.1598 1.94003C15.1064 2.11336 15.0131 2.2667 14.8798 2.40003C14.7464 2.53336 14.5864 2.6267 14.3998 2.68003C14.2264 2.73336 14.0464 2.76003 13.8598 2.76003ZM19.6998 14.78V4.38003H21.3398V5.34003C21.3931 5.19336 21.4664 5.05336 21.5598 4.92003C21.6531 4.77336 21.7598 4.6467 21.8798 4.54003C22.0131 4.43336 22.1598 4.35336 22.3198 4.30003C22.4798 4.2467 22.6464 4.22003 22.8198 4.22003C23.0198 4.22003 23.2131 4.26003 23.3998 4.34003C23.5998 4.42003 23.7664 4.53336 23.8998 4.68003C24.0464 4.8267 24.1598 4.99336 24.2398 5.18003C24.3331 5.3667 24.4064 5.56003 24.4598 5.76003C24.4998 5.56003 24.5598 5.3667 24.6398 5.18003C24.7331 4.99336 24.8464 4.8267 24.9798 4.68003C25.1131 4.53336 25.2731 4.42003 25.4598 4.34003C25.6598 4.26003 25.8598 4.22003 26.0598 4.22003C26.2598 4.22003 26.4531 4.26003 26.6398 4.34003C26.8398 4.42003 27.0064 4.53336 27.1398 4.68003C27.2864 4.8267 27.3998 4.99336 27.4798 5.18003C27.5731 5.3667 27.6398 5.56003 27.6798 5.76003C27.7331 5.96003 27.7664 6.1667 27.7798 6.38003C27.8064 6.58003 27.8198 6.78003 27.8198 6.98003V14.78H26.1798V6.98003C26.1798 6.83336 26.1664 6.69336 26.1398 6.56003C26.1264 6.41336 26.0864 6.27336 26.0198 6.14003C25.9664 6.0067 25.8798 5.90003 25.7598 5.82003C25.6531 5.7267 25.5264 5.68003 25.3798 5.68003C25.2331 5.68003 25.0998 5.7267 24.9798 5.82003C24.8731 5.90003 24.7864 6.0067 24.7198 6.14003C24.6664 6.27336 24.6264 6.41336 24.5998 6.56003C24.5864 6.69336 24.5798 6.83336 24.5798 6.98003V14.78H22.9398V6.98003C22.9398 6.83336 22.9264 6.69336 22.8998 6.56003C22.8864 6.41336 22.8464 6.27336 22.7798 6.14003C22.7264 6.0067 22.6398 5.90003 22.5198 5.82003C22.4131 5.7267 22.2864 5.68003 22.1398 5.68003C21.9931 5.68003 21.8598 5.7267 21.7398 5.82003C21.6331 5.90003 21.5464 6.0067 21.4798 6.14003C21.4264 6.27336 21.3864 6.41336 21.3598 6.56003C21.3464 6.69336 21.3398 6.83336 21.3398 6.98003V14.78H19.6998ZM33.7398 14.94C33.4464 14.94 33.1531 14.92 32.8598 14.88C32.5664 14.8534 32.2798 14.7934 31.9998 14.7C31.7198 14.6067 31.4531 14.4867 31.1998 14.34C30.9464 14.18 30.7264 13.9867 30.5398 13.76C30.3531 13.5334 30.2064 13.28 30.0998 13C30.0064 12.72 29.9598 12.4334 29.9598 12.14V12H31.7598V12.06C31.7598 12.2734 31.8264 12.4734 31.9598 12.66C32.0931 12.8467 32.2598 12.9934 32.4598 13.1C32.6598 13.1934 32.8664 13.26 33.0798 13.3C33.3064 13.3267 33.5264 13.34 33.7398 13.34C33.9531 13.34 34.1664 13.3267 34.3798 13.3C34.6064 13.26 34.8198 13.1934 35.0198 13.1C35.2198 13.0067 35.3864 12.8667 35.5198 12.68C35.6531 12.4934 35.7198 12.2934 35.7198 12.08C35.7198 11.8534 35.6531 11.6467 35.5198 11.46C35.3864 11.2734 35.2198 11.12 35.0198 11C34.8331 10.88 34.6331 10.7867 34.4198 10.72C34.2064 10.64 33.9931 10.5667 33.7798 10.5C33.5664 10.4334 33.3531 10.3667 33.1398 10.3C32.9264 10.2334 32.7198 10.1534 32.5198 10.06C32.3198 9.9667 32.1198 9.8667 31.9198 9.76003C31.7198 9.64003 31.5331 9.51336 31.3598 9.38003C31.1864 9.23336 31.0264 9.07336 30.8798 8.90003C30.7331 8.7267 30.6064 8.5467 30.4998 8.36003C30.3931 8.16003 30.3064 7.95336 30.2398 7.74003C30.1864 7.51336 30.1598 7.2867 30.1598 7.06003C30.1598 6.78003 30.2064 6.50003 30.2998 6.22003C30.3931 5.94003 30.5198 5.6867 30.6798 5.46003C30.8531 5.22003 31.0598 5.02003 31.2998 4.86003C31.5531 4.70003 31.8131 4.57336 32.0798 4.48003C32.3464 4.37336 32.6198 4.3067 32.8998 4.28003C33.1931 4.24003 33.4864 4.22003 33.7798 4.22003C34.0598 4.22003 34.3398 4.24003 34.6198 4.28003C34.9131 4.3067 35.1931 4.3667 35.4598 4.46003C35.7398 4.55336 35.9998 4.68003 36.2398 4.84003C36.4798 5.00003 36.6864 5.19336 36.8598 5.42003C37.0331 5.6467 37.1664 5.90003 37.2598 6.18003C37.3531 6.46003 37.3998 6.74003 37.3998 7.02003V7.16003H35.5998V7.10003C35.5998 6.8867 35.5398 6.69336 35.4198 6.52003C35.3131 6.33336 35.1664 6.1867 34.9798 6.08003C34.8064 5.97336 34.6131 5.9067 34.3998 5.88003C34.1998 5.84003 33.9931 5.82003 33.7798 5.82003C33.5664 5.82003 33.3598 5.84003 33.1598 5.88003C32.9598 5.9067 32.7664 5.97336 32.5798 6.08003C32.3931 6.17336 32.2398 6.31336 32.1198 6.50003C32.0131 6.67336 31.9598 6.8667 31.9598 7.08003C31.9598 7.29336 32.0264 7.50003 32.1598 7.70003C32.2931 7.8867 32.4531 8.04003 32.6398 8.16003C32.8264 8.28003 33.0264 8.38003 33.2398 8.46003C33.4531 8.5267 33.6664 8.59336 33.8798 8.66003C34.0931 8.71336 34.3064 8.78003 34.5198 8.86003C34.7331 8.9267 34.9398 9.0067 35.1398 9.10003C35.3531 9.19336 35.5531 9.30003 35.7398 9.42003C35.9398 9.5267 36.1264 9.65336 36.2998 9.80003C36.4864 9.93336 36.6531 10.0867 36.7998 10.26C36.9464 10.42 37.0731 10.6 37.1798 10.8C37.2864 11 37.3664 11.2067 37.4198 11.42C37.4864 11.6334 37.5198 11.8534 37.5198 12.08C37.5198 12.3734 37.4664 12.6667 37.3598 12.96C37.2664 13.24 37.1264 13.5 36.9398 13.74C36.7664 13.9667 36.5531 14.16 36.2998 14.32C36.0464 14.48 35.7731 14.6067 35.4798 14.7C35.1998 14.7934 34.9131 14.8534 34.6198 14.88C34.3264 14.92 34.0331 14.94 33.7398 14.94ZM43.1998 14.78H39.9998V0.080029H43.1998C43.5864 0.080029 43.9731 0.113362 44.3598 0.180029C44.7598 0.246696 45.1398 0.366696 45.4998 0.540029C45.8598 0.700029 46.1798 0.920029 46.4598 1.20003C46.7531 1.4667 46.9931 1.77336 47.1798 2.12003C47.3664 2.4667 47.4931 2.84003 47.5598 3.24003C47.6398 3.6267 47.6798 4.01336 47.6798 4.40003V10.46C47.6798 10.8467 47.6398 11.24 47.5598 11.64C47.4931 12.0267 47.3664 12.3934 47.1798 12.74C46.9931 13.0867 46.7531 13.4 46.4598 13.68C46.1798 13.9467 45.8598 14.1667 45.4998 14.34C45.1398 14.5 44.7598 14.6134 44.3598 14.68C43.9731 14.7467 43.5864 14.78 43.1998 14.78ZM41.7998 13.18H43.1998C43.4398 13.18 43.6798 13.16 43.9198 13.12C44.1598 13.08 44.3864 13.0067 44.5998 12.9C44.8131 12.78 45.0064 12.6334 45.1798 12.46C45.3531 12.2867 45.4931 12.0934 45.5998 11.88C45.7064 11.6534 45.7798 11.42 45.8198 11.18C45.8598 10.94 45.8798 10.7 45.8798 10.46V4.40003C45.8798 4.16003 45.8598 3.92003 45.8198 3.68003C45.7798 3.44003 45.7064 3.21336 45.5998 3.00003C45.4931 2.77336 45.3531 2.57336 45.1798 2.40003C45.0064 2.2267 44.8131 2.0867 44.5998 1.98003C44.3864 1.86003 44.1598 1.78003 43.9198 1.74003C43.6798 1.70003 43.4398 1.68003 43.1998 1.68003H41.7998V13.18ZM52.9198 14.94C52.5198 14.94 52.1198 14.88 51.7198 14.76C51.3198 14.64 50.9731 14.44 50.6798 14.16C50.3864 13.8667 50.1731 13.52 50.0398 13.12C49.9064 12.72 49.8398 12.32 49.8398 11.92C49.8398 11.5734 49.8798 11.2334 49.9598 10.9C50.0531 10.5534 50.2064 10.2467 50.4198 9.98003C50.6331 9.71336 50.8864 9.4867 51.1798 9.30003C51.4731 9.11336 51.7798 8.9667 52.0998 8.86003C52.4331 8.75336 52.7664 8.68003 53.0998 8.64003C53.4464 8.60003 53.7931 8.58003 54.1398 8.58003H55.7198V7.68003C55.7198 7.41336 55.6731 7.16003 55.5798 6.92003C55.4998 6.6667 55.3598 6.45336 55.1598 6.28003C54.9731 6.1067 54.7531 5.9867 54.4998 5.92003C54.2464 5.85336 53.9931 5.82003 53.7398 5.82003C53.4998 5.82003 53.2664 5.8467 53.0398 5.90003C52.8131 5.94003 52.5998 6.0267 52.3998 6.16003C52.2131 6.28003 52.0598 6.4467 51.9398 6.66003C51.8198 6.86003 51.7598 7.07336 51.7598 7.30003V7.36003H49.9598V7.26003C49.9598 6.95336 50.0064 6.65336 50.0998 6.36003C50.1931 6.0667 50.3264 5.80003 50.4998 5.56003C50.6731 5.3067 50.8864 5.09336 51.1398 4.92003C51.3931 4.7467 51.6598 4.6067 51.9398 4.50003C52.2331 4.39336 52.5264 4.32003 52.8198 4.28003C53.1264 4.24003 53.4331 4.22003 53.7398 4.22003C54.0598 4.22003 54.3798 4.2467 54.6998 4.30003C55.0331 4.34003 55.3464 4.4267 55.6398 4.56003C55.9331 4.68003 56.2064 4.8467 56.4598 5.06003C56.7131 5.27336 56.9198 5.52003 57.0798 5.80003C57.2398 6.08003 57.3531 6.38003 57.4198 6.70003C57.4864 7.02003 57.5198 7.3467 57.5198 7.68003V14.78H55.7198V13.1C55.6131 13.3667 55.4664 13.6267 55.2798 13.88C55.0931 14.12 54.8731 14.3267 54.6198 14.5C54.3798 14.66 54.1131 14.7734 53.8198 14.84C53.5264 14.9067 53.2264 14.94 52.9198 14.94ZM53.6798 13.34C53.9598 13.34 54.2331 13.2934 54.4998 13.2C54.7798 13.1067 55.0131 12.96 55.1998 12.76C55.3998 12.5467 55.5331 12.3 55.5998 12.02C55.6798 11.74 55.7198 11.46 55.7198 11.18V10.18H54.1398C53.9531 10.18 53.7664 10.1867 53.5798 10.2C53.3931 10.2134 53.2131 10.2467 53.0398 10.3C52.8664 10.34 52.6931 10.4 52.5198 10.48C52.3464 10.5467 52.1864 10.64 52.0398 10.76C51.9064 10.88 51.8064 11.0267 51.7398 11.2C51.6731 11.3734 51.6398 11.5534 51.6398 11.74C51.6398 11.98 51.6931 12.2134 51.7998 12.44C51.9198 12.6667 52.0798 12.8534 52.2798 13C52.4798 13.1334 52.6998 13.2267 52.9398 13.28C53.1798 13.32 53.4264 13.34 53.6798 13.34ZM63.7398 14.94C63.4464 14.94 63.1531 14.92 62.8598 14.88C62.5664 14.8534 62.2798 14.7934 61.9998 14.7C61.7198 14.6067 61.4531 14.4867 61.1998 14.34C60.9464 14.18 60.7264 13.9867 60.5398 13.76C60.3531 13.5334 60.2064 13.28 60.0998 13C60.0064 12.72 59.9598 12.4334 59.9598 12.14V12H61.7598V12.06C61.7598 12.2734 61.8264 12.4734 61.9598 12.66C62.0931 12.8467 62.2598 12.9934 62.4598 13.1C62.6598 13.1934 62.8664 13.26 63.0798 13.3C63.3064 13.3267 63.5264 13.34 63.7398 13.34C63.9531 13.34 64.1664 13.3267 64.3798 13.3C64.6064 13.26 64.8198 13.1934 65.0198 13.1C65.2198 13.0067 65.3864 12.8667 65.5198 12.68C65.6531 12.4934 65.7198 12.2934 65.7198 12.08C65.7198 11.8534 65.6531 11.6467 65.5198 11.46C65.3864 11.2734 65.2198 11.12 65.0198 11C64.8331 10.88 64.6331 10.7867 64.4198 10.72C64.2064 10.64 63.9931 10.5667 63.7798 10.5C63.5664 10.4334 63.3531 10.3667 63.1398 10.3C62.9264 10.2334 62.7198 10.1534 62.5198 10.06C62.3198 9.9667 62.1198 9.8667 61.9198 9.76003C61.7198 9.64003 61.5331 9.51336 61.3598 9.38003C61.1864 9.23336 61.0264 9.07336 60.8798 8.90003C60.7331 8.7267 60.6064 8.5467 60.4998 8.36003C60.3931 8.16003 60.3064 7.95336 60.2398 7.74003C60.1864 7.51336 60.1598 7.2867 60.1598 7.06003C60.1598 6.78003 60.2064 6.50003 60.2998 6.22003C60.3931 5.94003 60.5198 5.6867 60.6798 5.46003C60.8531 5.22003 61.0598 5.02003 61.2998 4.86003C61.5531 4.70003 61.8131 4.57336 62.0798 4.48003C62.3464 4.37336 62.6198 4.3067 62.8998 4.28003C63.1931 4.24003 63.4864 4.22003 63.7798 4.22003C64.0598 4.22003 64.3398 4.24003 64.6198 4.28003C64.9131 4.3067 65.1931 4.3667 65.4598 4.46003C65.7398 4.55336 65.9998 4.68003 66.2398 4.84003C66.4798 5.00003 66.6864 5.19336 66.8598 5.42003C67.0331 5.6467 67.1664 5.90003 67.2598 6.18003C67.3531 6.46003 67.3998 6.74003 67.3998 7.02003V7.16003H65.5998V7.10003C65.5998 6.8867 65.5398 6.69336 65.4198 6.52003C65.3131 6.33336 65.1664 6.1867 64.9798 6.08003C64.8064 5.97336 64.6131 5.9067 64.3998 5.88003C64.1998 5.84003 63.9931 5.82003 63.7798 5.82003C63.5664 5.82003 63.3598 5.84003 63.1598 5.88003C62.9598 5.9067 62.7664 5.97336 62.5798 6.08003C62.3931 6.17336 62.2398 6.31336 62.1198 6.50003C62.0131 6.67336 61.9598 6.8667 61.9598 7.08003C61.9598 7.29336 62.0264 7.50003 62.1598 7.70003C62.2931 7.8867 62.4531 8.04003 62.6398 8.16003C62.8264 8.28003 63.0264 8.38003 63.2398 8.46003C63.4531 8.5267 63.6664 8.59336 63.8798 8.66003C64.0931 8.71336 64.3064 8.78003 64.5198 8.86003C64.7331 8.9267 64.9398 9.0067 65.1398 9.10003C65.3531 9.19336 65.5531 9.30003 65.7398 9.42003C65.9398 9.5267 66.1264 9.65336 66.2998 9.80003C66.4864 9.93336 66.6531 10.0867 66.7998 10.26C66.9464 10.42 67.0731 10.6 67.1798 10.8C67.2864 11 67.3664 11.2067 67.4198 11.42C67.4864 11.6334 67.5198 11.8534 67.5198 12.08C67.5198 12.3734 67.4664 12.6667 67.3598 12.96C67.2664 13.24 67.1264 13.5 66.9398 13.74C66.7664 13.9667 66.5531 14.16 66.2998 14.32C66.0464 14.48 65.7731 14.6067 65.4798 14.7C65.1998 14.7934 64.9131 14.8534 64.6198 14.88C64.3264 14.92 64.0331 14.94 63.7398 14.94ZM69.9998 14.78V0.080029H71.7998V6.24003C71.8931 5.96003 72.0198 5.69336 72.1798 5.44003C72.3531 5.17336 72.5598 4.9467 72.7998 4.76003C73.0398 4.57336 73.3064 4.44003 73.5998 4.36003C73.8931 4.2667 74.1931 4.22003 74.4998 4.22003C74.8198 4.22003 75.1331 4.27336 75.4398 4.38003C75.7598 4.47336 76.0398 4.6267 76.2798 4.84003C76.5331 5.05336 76.7398 5.30003 76.8998 5.58003C77.0598 5.86003 77.1864 6.16003 77.2798 6.48003C77.3731 6.7867 77.4331 7.10003 77.4598 7.42003C77.4998 7.74003 77.5198 8.06003 77.5198 8.38003V14.78H75.7198V8.38003C75.7198 8.18003 75.7064 7.98003 75.6798 7.78003C75.6664 7.5667 75.6264 7.3667 75.5598 7.18003C75.4931 6.98003 75.4064 6.79336 75.2998 6.62003C75.1931 6.4467 75.0598 6.30003 74.8998 6.18003C74.7398 6.0467 74.5598 5.95336 74.3598 5.90003C74.1598 5.8467 73.9598 5.82003 73.7598 5.82003C73.5598 5.82003 73.3598 5.8467 73.1598 5.90003C72.9598 5.95336 72.7798 6.0467 72.6198 6.18003C72.4598 6.30003 72.3264 6.4467 72.2198 6.62003C72.1131 6.79336 72.0264 6.98003 71.9598 7.18003C71.8931 7.3667 71.8464 7.5667 71.8198 7.78003C71.8064 7.98003 71.7998 8.18003 71.7998 8.38003V14.78H69.9998Z" fill="white"/>
</svg>
