<svg width="32" height="32" viewBox="0 0 32 32" fill="none" xmlns="http://www.w3.org/2000/svg">
<path d="M16 32C13.8988 32 11.8183 31.5861 9.87707 30.7821C7.93586 29.978 6.17203 28.7994 4.68629 27.3137C3.20055 25.828 2.022 24.0641 1.21793 22.1229C0.413853 20.1817 -9.18442e-08 18.1011 0 16C9.18442e-08 13.8988 0.413853 11.8183 1.21793 9.87706C2.022 7.93586 3.20056 6.17203 4.68629 4.68629C6.17203 3.20055 7.93586 2.022 9.87707 1.21793C11.8183 0.413852 13.8988 -1.83688e-07 16 0V16V32Z" fill="#703BF7"/>
<path d="M32 16C32 18.1012 31.5861 20.1817 30.7821 22.1229C29.978 24.0641 28.7994 25.828 27.3137 27.3137C25.828 28.7994 24.0641 29.978 22.1229 30.7821C20.1817 31.5861 18.1012 32 16 32V16H32Z" fill="#703BF7"/>
<path d="M32 1.90798e-07C32 2.10115 31.5861 4.18173 30.7821 6.12294C29.978 8.06415 28.7994 9.82797 27.3137 11.3137C25.828 12.7994 24.0641 13.978 22.1229 14.7821C20.1817 15.5861 18.1012 16 16 16V0L32 1.90798e-07Z" fill="#703BF7"/>
</svg>
