<svg width="16" height="16" viewBox="0 0 16 16" fill="none" xmlns="http://www.w3.org/2000/svg">
<g clip-path="url(#clip0_6310_4805)">
<path d="M4.66683 4.83325C4.94297 4.83325 5.16683 5.05711 5.16683 5.33325L5.16683 10.6666C5.16683 10.9427 4.94297 11.1666 4.66683 11.1666C4.39069 11.1666 4.16683 10.9427 4.16683 10.6666L4.16683 5.33325C4.16683 5.05711 4.39069 4.83325 4.66683 4.83325Z" fill="white"/>
<path d="M11.8335 7.99992C11.8335 8.27606 11.6096 8.49992 11.3335 8.49992H7.87394L9.02038 9.64636C9.21564 9.84163 9.21564 10.1582 9.02038 10.3535C8.82512 10.5487 8.50854 10.5487 8.31328 10.3535L6.31328 8.35347C6.21951 8.2597 6.16683 8.13253 6.16683 7.99992C6.16683 7.86731 6.21951 7.74013 6.31328 7.64637L8.31328 5.64637C8.50854 5.4511 8.82512 5.4511 9.02038 5.64636C9.21564 5.84163 9.21564 6.15821 9.02038 6.35347L7.87394 7.49992H11.3335C11.6096 7.49992 11.8335 7.72378 11.8335 7.99992Z" fill="white"/>
<path fill-rule="evenodd" clip-rule="evenodd" d="M7.96191 0.833252C6.42298 0.833244 5.21696 0.833237 4.27597 0.95975C3.31281 1.08924 2.55279 1.35947 1.95625 1.95601C1.35971 2.55255 1.08949 3.31256 0.959994 4.27572C0.833481 5.21671 0.833488 6.42274 0.833496 7.96167V8.03817C0.833488 9.5771 0.833481 10.7831 0.959994 11.7241C1.08949 12.6873 1.35971 13.4473 1.95625 14.0438C2.55279 14.6404 3.31281 14.9106 4.27597 15.0401C5.21696 15.1666 6.42298 15.1666 7.96191 15.1666H8.03841C9.57734 15.1666 10.7834 15.1666 11.7244 15.0401C12.6875 14.9106 13.4475 14.6404 14.0441 14.0438C14.6406 13.4473 14.9108 12.6873 15.0403 11.7241C15.1668 10.7831 15.1668 9.5771 15.1668 8.03817V7.96167C15.1668 6.42274 15.1668 5.21671 15.0403 4.27572C14.9108 3.31256 14.6406 2.55255 14.0441 1.95601C13.4475 1.35947 12.6875 1.08924 11.7244 0.95975C10.7834 0.833237 9.57734 0.833244 8.03841 0.833252H7.96191ZM2.66336 2.66312C3.04313 2.28335 3.55695 2.06542 4.40921 1.95083C5.27587 1.83431 6.41468 1.83325 8.00016 1.83325C9.58565 1.83325 10.7245 1.83431 11.5911 1.95083C12.4434 2.06542 12.9572 2.28335 13.337 2.66312C13.7167 3.04289 13.9347 3.5567 14.0492 4.40897C14.1658 5.27562 14.1668 6.41444 14.1668 7.99992C14.1668 9.5854 14.1658 10.7242 14.0492 11.5909C13.9347 12.4431 13.7167 12.9569 13.337 13.3367C12.9572 13.7165 12.4434 13.9344 11.5911 14.049C10.7245 14.1655 9.58565 14.1666 8.00016 14.1666C6.41468 14.1666 5.27587 14.1655 4.40921 14.049C3.55695 13.9344 3.04313 13.7165 2.66336 13.3367C2.28359 12.9569 2.06566 12.4431 1.95108 11.5909C1.83456 10.7242 1.8335 9.5854 1.8335 7.99992C1.8335 6.41444 1.83456 5.27562 1.95108 4.40897C2.06566 3.5567 2.28359 3.04289 2.66336 2.66312Z" fill="white"/>
</g>
<defs>
<clipPath id="clip0_6310_4805">
<rect width="16" height="16" rx="5" fill="white"/>
</clipPath>
</defs>
</svg>
